<?xml version="1.0" encoding="UTF-8"?><svg
  id="Ebene_1"
  xmlns="http://www.w3.org/2000/svg"
  viewBox="0 0 1344 896"
>
  <defs>
    <style>
      .cls-1 {
        fill: #fff;
      }
    </style>
  </defs>
  <path
    class="cls-1"
    d="M0,896V0h1344v896H0ZM413.28,400.97l-25.04-30.53-11.51-14.49-6.94-8.93c-3.47-4.47-5.83-6.98-12.24-6.98l-49.5.02c-.85,0-2.77,1.03-3.38,1.53-.45.37.34,2.35.75,2.86l36.02,44.77,42.48,52.44,14.27-19.18c5.13-6.89,11.37-13.4,15.08-21.5ZM340.69,515.95l51.15.17,32.41-41.74,100.26-133.08-53.55-.36-17.26,23.26c-3.89,5.1-9.27,9.86-11.85,15.76-1.71,3.91-4.42,5.25-6.85,8.5l-77.14,103.45-17.18,24.05ZM670.77,497.05l9.95-20-91.13-.06-.13-21.94,70.07-.05,10.33-20.94-80.28-.07-.14-21.03,81.71.1,10.23-21.02-107.67-.05c-4.14,6.9-8.37,13.24-11.92,20.14s-.14,14.99-.37,21.88c-.19,5.79-.55,11.13-.48,16.75l.16,13.35c.13,10.96,1.06,21.57-.13,32.7l30.27.41,13.58.1,15.62-.05,16.97.08,33.35-.28ZM841.32,468.82c1.72-16.93,1.74-33.84-.97-50.8-2.65-16.55-21.25-25.97-36.02-25.92-26.08.09-51.51-.87-77.16.51-17.9.96-30.55,15.09-31.99,32.01-1.32,15.51-1.25,30.51.92,45.7,2.3,16.14,15.12,26.45,31.1,27.03l28.29,1.04c8.78.32,16.99.24,25.9-.27,18.53-1.04,56.49,4.48,59.93-29.31ZM993.27,391.89l-26.7.22c.42,4.99.78,9.15.74,13.93l-.5,61.83-48.43-49.72-25.19-26.15-33.85-.08v105.15s26.99-.02,26.99-.02l.06-72.55,41.17,41.25,31.91,31.21,33.82.13-.02-105.2ZM549.9,517.03c.76,0,2.99-1.05,2.71-1.49-.19-.29-.8-1.27-1.04-1.57l-22.2-27.93-40.61-.07-31.41-37.07c-5.64,6.1-9.95,11.78-14.8,18.03l-10.04,12.92c-2.44,2.62-1.7,5.41.41,7.85l25.34,29.27,91.65.07Z"
  />
  <path
    d="M993.27,391.89l.02,105.2-33.82-.13-31.91-31.21-41.17-41.25-.06,72.55-26.99.02v-105.15s33.85.08,33.85.08l25.19,26.15,48.43,49.72.5-61.83c.04-4.78-.31-8.94-.74-13.93l26.7-.22Z"
  />
  <path
    d="M670.77,497.05l-33.35.28-16.97-.08-15.62.05-13.58-.1-30.27-.41c1.19-11.13.26-21.74.13-32.7l-.16-13.35c-.07-5.61,0-1.85-.71-16.39-.59-12.15-1.84-15.63,1.56-22.24s7.77-13.23,11.92-20.14l107.67.05-10.23,21.02-81.71-.1.14,21.03,80.28.07-10.33,20.94-70.07.05.13,21.94,91.13.06-9.95,20Z"
  />
  <path
    d="M841.32,468.82c-3.44,33.8-41.4,28.27-59.93,29.31-8.91.5-17.12.59-25.9.27l-28.29-1.04c-15.98-.59-28.8-10.9-31.1-27.03-2.17-15.19-2.24-30.19-.92-45.7,1.44-16.92,14.1-31.05,31.99-32.01,25.65-1.38,51.08-.42,77.16-.51,14.77-.05,33.37,9.36,36.02,25.92,2.72,16.95,2.69,33.87.97,50.8ZM795.63,478.64c7.01-.2,15.67-4.61,16.95-11.32,2.73-14.33,3.04-29.42-.08-43.56-1.84-8.36-11.93-11.15-19.57-11.4-17.31-.57-33.77-.51-50.91-.05-9.77.27-17.48,6-18.14,16.26-.7,10.89-.53,21.94-.17,33.1.29,9.24,6.76,16.26,16.58,16.78,18.18.96,36.12.73,55.35.19Z"
  />
  <path
    class="cls-1"
    d="M795.63,478.64c-19.23.54-37.17.77-55.35-.19-9.81-.52-16.28-7.55-16.58-16.78-.36-11.16-.52-22.21.17-33.1.66-10.26,8.37-15.99,18.14-16.26,17.14-.47,33.6-.52,50.91.05,7.64.25,17.73,3.04,19.57,11.4,3.12,14.14,2.81,29.22.08,43.56-1.28,6.71-9.94,11.12-16.95,11.32Z"
  />
</svg>
