<svg
  width="830"
  height="216"
  viewBox="295 303 830 216"
  fill="none"
  xmlns="http://www.w3.org/2000/svg"
>
  <defs>
    <style>
      .white {
        fill: #fff;
      }
      .black {
        fill: #fff;
      }
    </style>
  </defs>

  <g transform="translate(292 300) scale(0.27)">
    <g transform="translate(-213 -60)">
      <polygon
        points="233,781 324.5,781 845.5,80 754,80"
        class="white"
        stroke="#FFFFFF"
        stroke-width="1"
        stroke-linejoin="round"
        vector-effect="non-scaling-stroke"
        paint-order="stroke fill"
      />
      <polygon
        points="324.5,781 416,781 937,80 845.5,80"
        class="white"
        stroke="#FFFFFF"
        stroke-width="1"
        stroke-linejoin="round"
        vector-effect="non-scaling-stroke"
        paint-order="stroke fill"
      />
      <polygon
        points="233,80 324.5,80 504.36,322 458.61,383.56"
        class="white"
        stroke="#FFFFFF"
        stroke-width="1"
        stroke-linejoin="round"
        vector-effect="non-scaling-stroke"
        paint-order="stroke fill"
      />
      <polygon
        points="324.5,80 416,80 550.11,260.44 504.36,322"
        class="white"
        stroke="#FFFFFF"
        stroke-width="1"
        stroke-linejoin="round"
        vector-effect="non-scaling-stroke"
        paint-order="stroke fill"
      />
      <polygon
        points="711.39,477.44 838.15,648 1033.12,648 1082.56,714.5 796.075,714.5 665.64,539"
        class="white"
        stroke="#FFFFFF"
        stroke-width="1"
        stroke-linejoin="round"
        vector-effect="non-scaling-stroke"
        paint-order="stroke fill"
      />
      <polygon
        points="665.64,539 796.075,714.5 1082.56,714.5 1132,781 754,781 619.89,600.56"
        class="white"
        stroke="#FFFFFF"
        stroke-width="1"
        stroke-linejoin="round"
        vector-effect="non-scaling-stroke"
        paint-order="stroke fill"
      />
    </g>
  </g>

  <g class="black" transform="translate(560 517) scale(1.3) translate(-560 -517)">
    <path d="M993.27,391.89l.02,105.2-33.82-.13-31.91-31.21-41.17-41.25-.06,72.55-26.99.02v-105.15s33.85.08,33.85.08l25.19,26.15,48.43,49.72.5-61.83c.04-4.78-.31-8.94-.74-13.93l26.7-.22Z" />
    <path d="M670.77,497.05l-33.35.28-16.97-.08-15.62.05-13.58-.1-30.27-.41c1.19-11.13.26-21.74.13-32.7l-.16-13.35c-.07-5.61,0-1.85-.71-16.39-.59-12.15-1.84-15.63,1.56-22.24s7.77-13.23,11.92-20.14l107.67.05-10.23,21.02-81.71-.1.14,21.03,80.28.07-10.33,20.94-70.07.05.13,21.94,91.13.06-9.95,20Z" />
    <path d="M841.32,468.82c-3.44,33.8-41.4,28.27-59.93,29.31-8.91.5-17.12.59-25.9.27l-28.29-1.04c-15.98-.59-28.8-10.9-31.1-27.03-2.17-15.19-2.24-30.19-.92-45.7,1.44-16.92,14.1-31.05,31.99-32.01,25.65-1.38,51.08-.42,77.16-.51,14.77-.05,33.37,9.36,36.02,25.92,2.72,16.95,2.69,33.87.97,50.8ZM795.63,478.64c7.01-.2,15.67-4.61,16.95-11.32,2.73-14.33,3.04-29.42-.08-43.56-1.84-8.36-11.93-11.15-19.57-11.4-17.31-.57-33.77-.51-50.91-.05-9.77.27-17.48,6-18.14,16.26-.7,10.89-.53,21.94-.17,33.1.29,9.24,6.76,16.26,16.58,16.78,18.18.96,36.12.73,55.35.19Z" />
  </g>

</svg>
